HIERARCHY
ROOT SpineBase
{
  OFFSET 0.000000 0.000000 0.000000
  CHANNELS 6 Xposition Yposition Zposition Zrotation Xrotation Yrotation
  JOINT SpineMid
  {
    OFFSET 0.000000 31.533025 0.000000
    CHANNELS 3 Zrotation Xrotation Yrotation
    JOINT SpineShoulder
    {
      OFFSET -0.385380 23.327007 -0.535591
      CHANNELS 3 Zrotation Xrotation Yrotation
      JOINT Neck
      {
        OFFSET -0.085191 7.702220 -0.458322
        CHANNELS 3 Zrotation Xrotation Yrotation
        JOINT Head
        {
          OFFSET -5.502628 12.579560 2.287592
          CHANNELS 3 Zrotation Xrotation Yrotation
          End Site
          {
            OFFSET 0 0 0
          }
        }
      }
      JOINT ShoulderLeft
      {
        OFFSET -12.752558 -2.151519 11.778724
        CHANNELS 3 Zrotation Xrotation Yrotation
        JOINT ElbowLeft
        {
          OFFSET -6.184945 -27.446498 4.024389
          CHANNELS 3 Zrotation Xrotation Yrotation
          JOINT WristLeft
          {
            OFFSET -5.664862 -27.335778 3.692164
            CHANNELS 3 Zrotation Xrotation Yrotation
            JOINT HandLeft
            {
              OFFSET -2.090685 -6.501121 1.291015
              CHANNELS 3 Zrotation Xrotation Yrotation
              JOINT HandTipLeft
              {
                OFFSET -1.521271 -7.369267 1.037080
                CHANNELS 3 Zrotation Xrotation Yrotation
                End Site
                {
                  OFFSET 0 0 0
                }
              }
              JOINT ThumbLeft
              {
                OFFSET 2.855815 -0.620503 0.930377
                CHANNELS 3 Zrotation Xrotation Yrotation
                End Site
                {
                  OFFSET 0 0 0
                }
              }
            }
          }
        }
      }
      JOINT ShoulderRight
      {
        OFFSET 9.971005 -4.663755 -11.386702
        CHANNELS 3 Zrotation Xrotation Yrotation
        JOINT ElbowRight
        {
          OFFSET 1.766545 -27.620129 -6.558044
          CHANNELS 3 Zrotation Xrotation Yrotation
          JOINT WristRight
          {
            OFFSET -11.172468 -17.871469 -2.234594
            CHANNELS 3 Zrotation Xrotation Yrotation
            JOINT HandRight
            {
              OFFSET -1.907695 -2.004446 3.982157
              CHANNELS 3 Zrotation Xrotation Yrotation
              JOINT HandTipRight
              {
                OFFSET -4.111074 -7.882071 -2.660311
                CHANNELS 3 Zrotation Xrotation Yrotation
                End Site
                {
                  OFFSET 0 0 0
                }
              }
              JOINT ThumbRight
              {
                OFFSET -5.288177 4.906633 5.005965
                CHANNELS 3 Zrotation Xrotation Yrotation
                End Site
                {
                  OFFSET 0 0 0
                }
              }
            }
          }
        }
      }
    }
  }
  JOINT HipLeft
  {
    OFFSET -5.055934 0.084621 1.475116
    CHANNELS 3 Zrotation Xrotation Yrotation
    JOINT KneeLeft
    {
      OFFSET -3.577034 -30.936678 -16.688210
      CHANNELS 3 Zrotation Xrotation Yrotation
      JOINT AnkleLeft
      {
        OFFSET 12.325095 -36.083137 23.424160
        CHANNELS 3 Zrotation Xrotation Yrotation
        JOINT FootLeft
        {
          OFFSET -3.722589 -6.727207 -5.938751
          CHANNELS 3 Zrotation Xrotation Yrotation
          End Site
          {
            OFFSET 0 0 0
          }
        }
      }
    }
  }
  JOINT HipRight
  {
    OFFSET 5.582811 1.485843 -8.372156
    CHANNELS 3 Zrotation Xrotation Yrotation
    JOINT KneeRight
    {
      OFFSET 3.196516 -35.225838 -9.733823
      CHANNELS 3 Zrotation Xrotation Yrotation
      JOINT AnkleRight
      {
        OFFSET 13.553955 -33.672294 8.957011
        CHANNELS 3 Zrotation Xrotation Yrotation
        JOINT FootRight
        {
          OFFSET 0.771311 -7.766631 -6.691619
          CHANNELS 3 Zrotation Xrotation Yrotation
          End Site
          {
            OFFSET 0 0 0
          }
        }
      }
    }
  }
}
MOTION
Frames: 9
Frame Time: 0.033333
-23.847572 83.932904 332.210527 -0.000000 0.000000 42.787490 -0.000000 0.000000 -42.787490 -0.000000 0.000000 0.000000 -0.000000 0.000000 0.000000 0.000000 0.000000 0.000000 -0.000000 0.000000 0.000000 -0.000000 0.000000 0.000000 -0.000000 0.000000 0.000000 -0.000000 0.000000 0.000000 0.000000 0.000000 0.000000 0.000000 0.000000 0.000000 -0.000000 0.000000 0.000000 -0.000000 0.000000 0.000000 -0.000000 0.000000 0.000000 -0.000000 0.000000 0.000000 0.000000 0.000000 0.000000 0.000000 0.000000 0.000000 -0.000000 0.000000 -42.787490 -0.000000 0.000000 0.000000 -0.000000 0.000000 0.000000 0.000000 0.000000 0.000000 -0.000000 0.000000 -42.787490 -0.000000 0.000000 0.000000 -0.000000 0.000000 0.000000 0.000000 0.000000 0.000000
-24.678082 83.905088 332.448197 -0.774511 -0.027394 40.891785 -0.169208 -0.072041 -40.915995 0.855186 0.192963 0.021382 0.978756 -1.111080 -0.653235 0.000000 0.000000 0.000000 0.478157 -0.805307 0.254923 1.728536 -0.267444 0.261806 6.638989 -5.355592 3.707348 -5.014821 7.524390 -3.484445 0.000000 0.000000 0.000000 0.000000 0.000000 0.000000 0.609156 -0.535820 -0.176195 4.592026 1.255190 -1.024498 -2.224850 10.590621 -5.030414 -3.603875 -12.051672 6.022955 0.000000 0.000000 0.000000 0.000000 0.000000 0.000000 3.356465 -1.977417 -42.557258 -3.867731 -1.745352 0.805909 3.530502 -3.152306 0.916841 0.000000 0.000000 0.000000 4.188303 1.353910 -40.992516 -2.840816 -4.534743 -0.747068 5.392198 -3.784786 -3.270651 0.000000 0.000000 0.000000
-25.328465 83.875395 332.608765 -1.346669 -0.022384 39.161859 -0.341649 -0.123197 -39.206849 0.504023 0.141885 -0.022857 2.929983 -2.109549 -1.255343 0.000000 0.000000 0.000000 1.998041 -1.342959 0.559579 3.148199 -0.416683 0.445102 11.247476 -7.929783 6.320360 -6.777044 12.452606 -5.906280 0.000000 0.000000 0.000000 0.000000 0.000000 0.000000 2.250089 -0.781886 -0.284591 8.483108 2.364574 -2.098543 -2.996727 20.366339 -11.000606 -6.004086 -24.060063 11.442884 0.000000 0.000000 0.000000 0.000000 0.000000 0.000000 6.307628 -3.228614 -42.144879 -7.075219 -3.682930 1.306819 5.976032 -4.495843 1.712305 0.000000 0.000000 0.000000 7.658597 2.864794 -39.398871 -5.492187 -8.723570 -1.820243 9.105327 -5.752813 -4.923362 0.000000 0.000000 0.000000
-25.798723 83.843827 332.692231 -1.715529 0.015174 37.596057 -0.521654 -0.151911 -37.656895 0.675050 0.170018 -0.030521 4.119644 -3.319729 -1.903006 0.000000 0.000000 0.000000 2.837125 -1.947214 0.815711 4.269347 -0.449634 0.552197 14.258048 -8.665407 7.787904 -6.238432 15.398376 -7.849312 0.000000 0.000000 0.000000 0.000000 0.000000 0.000000 3.192172 -1.059677 -0.426091 11.593387 3.335424 -3.149352 -2.505183 28.313605 -17.457810 -7.182756 -34.787281 16.336283 0.000000 0.000000 0.000000 0.000000 0.000000 0.000000 8.826568 -3.820770 -41.630813 -9.675535 -5.749247 1.523023 7.023724 -3.762676 2.283605 0.000000 0.000000 0.000000 10.393007 4.423456 -38.003147 -8.002887 -12.526821 -3.181666 11.397703 -5.848721 -5.183794 0.000000 0.000000 0.000000
-26.088854 83.810383 332.698594 -1.880224 0.085435 36.190520 -0.712903 -0.156955 -36.261355 0.793000 0.169636 -0.035637 5.119875 -4.631431 -2.561206 0.000000 0.000000 0.000000 3.579357 -2.518106 1.061075 5.098424 -0.365431 0.584548 16.141097 -8.139239 8.262691 -4.309799 16.908663 -9.432800 0.000000 0.000000 0.000000 0.000000 0.000000 0.000000 4.009560 -1.258360 -0.566767 13.892224 4.187600 -4.121798 -1.191449 34.105204 -23.893801 -7.175886 -43.610987 20.976770 0.000000 0.000000 0.000000 0.000000 0.000000 0.000000 10.895613 -3.820601 -41.075832 -11.724290 -7.899602 1.482671 6.533458 -0.904148 2.677705 0.000000 0.000000 0.000000 12.399440 5.943459 -36.785441 -10.416662 -15.932898 -4.804821 12.367647 -4.094827 -4.096178 0.000000 0.000000 0.000000
-26.198858 83.775063 332.627854 -1.839825 0.188576 34.940008 -0.918367 -0.137288 -35.014629 0.858319 0.140698 -0.038126 5.926232 -6.042209 -3.228660 0.000000 0.000000 0.000000 4.233654 -3.062532 1.299472 5.636118 -0.159469 0.542432 17.250850 -6.619738 7.882808 -1.970998 17.339225 -10.488251 0.000000 0.000000 0.000000 0.000000 0.000000 0.000000 4.700064 -1.376010 -0.706703 15.379586 4.945297 -4.978164 0.470179 37.936392 -29.908924 -5.934237 -50.435256 25.770682 0.000000 0.000000 0.000000 0.000000 0.000000 0.000000 12.505465 -3.287978 -40.522127 -13.272702 -10.105009 1.215559 4.549230 3.889990 3.111466 0.000000 0.000000 0.000000 13.700229 7.361033 -35.718503 -12.775396 -18.949014 -6.674487 11.906242 -0.503074 -1.474743 0.000000 0.000000 0.000000
-25.956140 83.719234 332.413512 -1.211918 0.495062 33.421953 -1.410889 -0.013463 -33.489843 0.914146 0.047501 -0.032268 6.209857 -8.256706 -4.151216 0.000000 0.000000 0.000000 4.628929 -3.312459 1.440490 5.205283 -0.106903 0.462049 18.359299 -1.465839 5.153526 -2.093200 18.017815 -10.748439 0.000000 0.000000 0.000000 0.000000 0.000000 0.000000 5.235923 -1.548048 -0.881755 15.851959 5.661435 -5.614103 1.649603 39.754338 -38.410655 1.057463 -54.684703 36.630696 0.000000 0.000000 0.000000 0.000000 0.000000 0.000000 13.939435 -1.137467 -39.823875 -14.708544 -13.280029 0.454583 -4.367994 16.842519 5.781707 0.000000 0.000000 0.000000 13.672535 8.377431 -34.388996 -15.608219 -20.812206 -8.737905 9.835424 4.015842 3.407059 0.000000 0.000000 0.000000
-25.596585 83.679770 332.149405 -0.590339 0.702953 32.329014 -1.728092 0.083173 -32.388385 0.837774 -0.068173 -0.028501 6.787326 -9.997967 -4.914287 0.000000 0.000000 0.000000 4.965864 -3.963263 1.686866 5.919284 0.648084 0.260089 17.426946 2.298007 2.816632 -0.433161 19.613657 -11.441407 0.000000 0.000000 0.000000 0.000000 0.000000 0.000000 5.691535 -1.538322 -1.041392 15.758145 6.518424 -6.349252 0.294191 38.723633 -42.413497 5.705846 -55.049473 43.871723 0.000000 0.000000 0.000000 0.000000 0.000000 0.000000 14.654282 0.754845 -39.319198 -14.043776 -18.035748 0.000749 -8.940389 23.971742 7.773450 0.000000 0.000000 0.000000 13.398321 9.734065 -33.383148 -17.764971 -23.275404 -11.132422 5.038301 9.542164 10.805555 0.000000 0.000000 0.000000
-25.077294 83.665399 331.840299 0.165514 0.933236 31.824747 -1.889054 0.175390 -31.869571 0.687400 -0.182722 -0.018413 6.860673 -11.346839 -5.444777 0.000000 0.000000 0.000000 5.926694 -4.233689 1.965327 5.119242 1.807914 -0.201162 17.315985 2.915698 2.509778 -2.277679 15.940686 -9.477321 0.000000 0.000000 0.000000 0.000000 0.000000 0.000000 5.770751 -1.468428 -1.161534 14.741511 7.315248 -6.899951 -4.141975 34.567031 -44.131722 12.203798 -49.466629 51.463236 0.000000 0.000000 0.000000 0.000000 0.000000 0.000000 14.437670 2.534118 -39.048041 -14.345864 -19.513082 -0.846694 -9.385659 26.017701 8.065001 0.000000 0.000000 0.000000 12.379867 10.727445 -32.822771 -20.229950 -25.453663 -14.149193 -1.454440 17.158498 20.901882 0.000000 0.000000 0.000000
